<svg width="104" height="102" viewBox="0 0 104 102" fill="none" xmlns="http://www.w3.org/2000/svg">
<g id="Github - Original" filter="url(#filter0_d_111_2220)">
<g clip-path="url(#clip0_111_2220)">
<path id="Vector" fill-rule="evenodd" clip-rule="evenodd" d="M45.0009 1.83337C34.318 1.83879 23.9854 5.53839 15.8507 12.2706C7.71594 19.0029 2.30955 28.3287 0.5982 38.5807C-1.11314 48.8327 0.982134 59.3422 6.50942 68.23C12.0367 77.1179 20.6356 83.8045 30.7684 87.0943C33.0039 87.5 33.8459 86.1452 33.8459 84.9934C33.8459 83.8415 33.8012 80.5017 33.7863 76.8505C21.2676 79.4948 18.6224 71.6852 18.6224 71.6852C16.5806 66.614 13.6298 65.281 13.6298 65.281C9.54634 62.5715 13.9353 62.6222 13.9353 62.6222C18.4584 62.9338 20.8355 67.1356 20.8355 67.1356C24.8444 73.8223 31.3645 71.888 33.9278 70.7579C34.3302 67.9252 35.5001 65.9982 36.7893 64.9043C26.7893 63.8031 16.2826 60.0504 16.2826 43.2866C16.2206 38.939 17.88 34.7346 20.9174 31.5432C20.4555 30.442 18.913 25.9939 21.3571 19.952C21.3571 19.952 25.135 18.7783 33.7341 24.4363C41.1099 22.4753 48.8919 22.4753 56.2677 24.4363C64.8593 18.7783 68.6298 19.952 68.6298 19.952C71.0814 25.9794 69.5389 30.4275 69.0769 31.5432C72.124 34.7351 73.7869 38.9468 73.7192 43.3011C73.7192 60.1012 63.1902 63.8031 53.1753 64.8825C54.7848 66.2445 56.223 68.9033 56.223 72.9892C56.223 78.8428 56.1708 83.5517 56.1708 84.9934C56.1708 86.1597 56.983 87.5217 59.2632 87.0943C69.3972 83.8041 77.9969 77.1163 83.5241 68.2269C89.0513 59.3376 91.1455 48.8265 89.4322 38.5736C87.7189 28.3207 82.3098 18.9947 74.1724 12.2636C66.035 5.53251 55.7 1.83536 45.0158 1.83337H45.0009Z" fill="#191717"/>
<path id="Vector_2" d="M30.1042 73.2426C30.1042 73.5976 29.687 73.9019 29.1505 73.9091C28.614 73.9164 28.1743 73.6266 28.1743 73.2716C28.1743 72.9166 28.5916 72.6124 29.1281 72.6051C29.6646 72.5979 30.1042 72.8804 30.1042 73.2426Z" fill="#191717"/>
<path id="Vector_3" d="M33.532 72.6848C33.5991 73.0398 33.2265 73.4093 32.69 73.4962C32.1534 73.5831 31.684 73.373 31.6169 73.0253C31.5499 72.6776 31.9374 72.3009 32.459 72.2067C32.9806 72.1125 33.4649 72.3298 33.532 72.6848Z" fill="#191717"/>
<path id="Vector_4" d="M26.4232 72.9963C26.3114 73.3368 25.8047 73.4889 25.298 73.3441C24.7913 73.1992 24.4559 72.7935 24.5528 72.4457C24.6497 72.098 25.1638 71.9386 25.678 72.098C26.1922 72.2574 26.52 72.6413 26.4232 72.9963Z" fill="#191717"/>
<path id="Vector_5" d="M23.0478 71.5764C22.8019 71.8444 22.3027 71.772 21.8928 71.4097C21.483 71.0475 21.3861 70.5549 21.632 70.2941C21.8779 70.0333 22.3772 70.1057 22.8019 70.4607C23.2266 70.8157 23.3086 71.3156 23.0478 71.5764Z" fill="#191717"/>
<path id="Vector_6" d="M20.641 69.1423C20.3653 69.3307 19.8958 69.1423 19.635 68.7656C19.5629 68.698 19.5056 68.617 19.4664 68.5274C19.4272 68.4378 19.407 68.3414 19.407 68.244C19.407 68.1466 19.4272 68.0502 19.4664 67.9606C19.5056 67.871 19.5629 67.79 19.635 67.7224C19.9107 67.5413 20.3802 67.7224 20.641 68.0919C20.9018 68.4613 20.9093 68.954 20.641 69.1423Z" fill="#191717"/>
<path id="Vector_7" d="M18.8674 66.6285C18.713 66.704 18.5365 66.7252 18.3679 66.6881C18.1994 66.6511 18.0493 66.5583 17.9434 66.4256C17.6528 66.1213 17.5931 65.7012 17.8167 65.5128C18.0402 65.3245 18.4426 65.4114 18.7332 65.7157C19.0238 66.0199 19.0909 66.4401 18.8674 66.6285Z" fill="#191717"/>
<path id="Vector_8" d="M17.0416 64.6507C16.9447 64.868 16.5871 64.9332 16.2964 64.7811C16.0058 64.629 15.7898 64.3464 15.8941 64.1218C15.9984 63.8973 16.3486 63.8393 16.6392 63.9914C16.9298 64.1436 17.1534 64.4333 17.0416 64.6507Z" fill="#191717"/>
</g>
</g>
<defs>
<filter id="filter0_d_111_2220" x="0" y="0" width="104" height="102" filterUnits="userSpaceOnUse" color-interpolation-filters="sRGB">
<feFlood flood-opacity="0" result="BackgroundImageFix"/>
<feColorMatrix in="SourceAlpha" type="matrix" values="0 0 0 0 0 0 0 0 0 0 0 0 0 0 0 0 0 0 127 0" result="hardAlpha"/>
<feOffset dx="10" dy="10"/>
<feGaussianBlur stdDeviation="2"/>
<feComposite in2="hardAlpha" operator="out"/>
<feColorMatrix type="matrix" values="0 0 0 0 0 0 0 0 0 0 0 0 0 0 0 0 0 0 0.25 0"/>
<feBlend mode="normal" in2="BackgroundImageFix" result="effect1_dropShadow_111_2220"/>
<feBlend mode="normal" in="SourceGraphic" in2="effect1_dropShadow_111_2220" result="shape"/>
</filter>
<clipPath id="clip0_111_2220">
<rect width="90" height="88" rx="44" fill="white"/>
</clipPath>
</defs>
</svg>
