<svg width="104" height="102" viewBox="0 0 104 102" fill="none" xmlns="http://www.w3.org/2000/svg">
<g id="LinkedIn - Original" filter="url(#filter0_d_108_2215)">
<g clip-path="url(#clip0_108_2215)">
<path id="Vector" d="M83.3562 0H6.64375C4.88172 0 3.19186 0.684411 1.94591 1.90267C0.699966 3.12093 0 4.77324 0 6.49611V81.5039C0 83.2268 0.699966 84.8791 1.94591 86.0973C3.19186 87.3156 4.88172 88 6.64375 88H83.3562C85.1183 88 86.8082 87.3156 88.0541 86.0973C89.3 84.8791 90 83.2268 90 81.5039V6.49611C90 4.77324 89.3 3.12093 88.0541 1.90267C86.8082 0.684411 85.1183 0 83.3562 0ZM26.825 74.965H13.2938V32.9389H26.825V74.965ZM20.05 27.115C18.5151 27.1066 17.0172 26.6537 15.7453 25.8137C14.4733 24.9736 13.4844 23.7839 12.9033 22.3949C12.3222 21.0058 12.1749 19.4795 12.4801 18.0087C12.7853 16.5378 13.5293 15.1883 14.6181 14.1305C15.7069 13.0727 17.0918 12.354 18.598 12.065C20.1042 11.7761 21.6642 11.9298 23.0811 12.5069C24.498 13.0841 25.7083 14.0586 26.5592 15.3076C27.4102 16.5567 27.8637 18.0242 27.8625 19.525C27.877 20.5298 27.6844 21.5271 27.2963 22.4576C26.9082 23.3881 26.3324 24.2326 25.6034 24.9409C24.8743 25.6492 24.0069 26.2067 23.0528 26.5802C22.0987 26.9537 21.0775 27.1356 20.05 27.115ZM76.7 75.0017H63.175V52.0422C63.175 45.2711 60.2313 43.1811 56.4313 43.1811C52.4188 43.1811 48.4813 46.1389 48.4813 52.2133V75.0017H34.95V32.9694H47.9625V38.7933H48.1375C49.4438 36.2083 54.0188 31.79 61 31.79C68.55 31.79 76.7063 36.1717 76.7063 49.005L76.7 75.0017Z" fill="#0A66C2"/>
</g>
</g>
<defs>
<filter id="filter0_d_108_2215" x="0" y="0" width="104" height="102" filterUnits="userSpaceOnUse" color-interpolation-filters="sRGB">
<feFlood flood-opacity="0" result="BackgroundImageFix"/>
<feColorMatrix in="SourceAlpha" type="matrix" values="0 0 0 0 0 0 0 0 0 0 0 0 0 0 0 0 0 0 127 0" result="hardAlpha"/>
<feOffset dx="10" dy="10"/>
<feGaussianBlur stdDeviation="2"/>
<feComposite in2="hardAlpha" operator="out"/>
<feColorMatrix type="matrix" values="0 0 0 0 0 0 0 0 0 0 0 0 0 0 0 0 0 0 0.25 0"/>
<feBlend mode="normal" in2="BackgroundImageFix" result="effect1_dropShadow_108_2215"/>
<feBlend mode="normal" in="SourceGraphic" in2="effect1_dropShadow_108_2215" result="shape"/>
</filter>
<clipPath id="clip0_108_2215">
<rect width="90" height="88" rx="7" fill="white"/>
</clipPath>
</defs>
</svg>
